<?xml version="1.0" standalone="no"?>
<!DOCTYPE svg PUBLIC "-//W3C//DTD SVG 1.1//EN" "http://www.w3.org/Graphics/SVG/1.1/DTD/svg11.dtd" >
<svg xmlns="http://www.w3.org/2000/svg">
<metadata>
<json>
<![CDATA[
{
	"fontFamily": "icomoon",
	"description": "Font generated by IcoMoon.",
	"fontURL": "https://github.com/sachinchoolur/lightGallery",
	"license": "MLT",
	"licenseURL": "http://opensource.org/licenses/MIT",
	"copyright": "sachin",
	"version": "Version 1.0",
	"majorVersion": 0,
	"fontId": "icomoon",
	"psName": "icomoon",
	"subFamily": "Regular",
	"fullName": "icomoon"
}
]]>
</json>
</metadata>
<defs>
<font id="icomoon" horiz-adv-x="1024">
<font-face units-per-em="1024" ascent="960" descent="-64" />
<missing-glyph horiz-adv-x="1024" />
<glyph unicode="&#x20;" horiz-adv-x="512" d="" />
<glyph unicode="&#xe900;" glyph-name="profile" data-tags="profile-1" horiz-adv-x="1126" d="M551.151 386.014c163.43 0 296.004 128.58 296.004 287.061s-132.574 286.14-296.004 286.14-296.004-128.58-296.004-286.14c0-157.628 132.574-287.061 296.004-287.061zM551.151 884.361c119.842 0 217.907-95.095 217.907-211.285 0-116.224-98.065-211.319-217.907-211.319-119.876 0-217.907 95.095-217.907 211.285 0 116.258 98.031 211.319 217.907 211.319zM39.049-62.123h1027.823c21.777 0 39.049 16.725 39.049 37.888 0 198.076-166.161 360.107-371.371 360.107h-363.179c-204.288-0.034-371.371-161.178-371.371-360.141 0-21.163 17.237-37.888 39.049-37.888zM371.371 260.096h363.179c148.924 0 271.497-107.383 290.543-246.511h-944.299c19.115 138.24 141.653 246.545 290.577 246.545z" />
<glyph unicode="&#xe901;" glyph-name="search" data-tags="magnifying-glass-2" d="M1011.456 8.704l-246.144 246.208c60.772 73.812 97.621 169.307 97.621 273.408 0 238.305-193.099 431.509-431.365 431.68h-0.016c-238.34 0-431.552-193.212-431.552-431.552s193.212-431.552 431.552-431.552v0c0.228 0 0.497-0.001 0.766-0.001 103.809 0 199.011 36.85 273.239 98.182l-0.725-0.582 246.208-245.952c7.721-7.753 18.404-12.55 30.208-12.55 23.544 0 42.63 19.086 42.63 42.63 0 11.74-4.746 22.372-12.424 30.081l0.001-0.001zM431.552 182.784c-190.885 0.145-345.601 154.794-345.856 345.639v0.025c0.218 190.923 154.933 345.638 345.835 345.856h0.021c190.879-0.327 345.529-154.977 345.856-345.824v-0.032c-0.364-190.813-155.023-345.382-345.835-345.6h-0.021z" />
<glyph unicode="&#xe902;" glyph-name="down-arrow" data-tags="down-arrow-of-angle_6" horiz-adv-x="1536" d="M1510.912 729.771l-214.357 224.597-541.013-566.955-541.184 566.955-214.357-224.597 755.541-791.381z" />
<glyph unicode="&#xe903;" glyph-name="facebook" data-tags="facebook-logo-1" horiz-adv-x="563" d="M532.275 959.795l-132.454 0.205c-148.838 0-244.992-97.997-244.992-249.754v-115.098h-133.171c-0.015 0-0.033 0-0.051 0-11.462 0-20.758-9.278-20.787-20.733v-166.813c0-11.418 9.318-20.685 20.838-20.685h133.171v-420.966c0-11.418 9.318-20.685 20.838-20.685h173.773c0.015 0 0.033 0 0.051 0 11.434 0 20.707 9.255 20.736 20.682v420.969h155.75c11.52 0 20.838 9.216 20.838 20.685v166.81c0 0.031 0 0.067 0 0.103 0 11.396-9.238 20.634-20.634 20.634-0.054 0-0.108 0-0.162-0.001h-155.845v97.587c0 46.899 11.264 70.707 72.806 70.707l89.19 0.051c0.030 0 0.066 0 0.102 0 11.434 0 20.707 9.255 20.736 20.682v154.934c-0.058 11.436-9.342 20.685-20.787 20.685 0 0 0 0 0 0v0z" />
<glyph unicode="&#xe904;" glyph-name="vk" data-tags="vk-social-network-logo" horiz-adv-x="1829" d="M1815.113 36.133c-2.183 4.664-4.256 8.476-6.519 12.158l0.302-0.528c-31.671 55.881-92.16 124.489-181.394 205.751l-1.975 1.902-0.878 0.878-1.024 0.951h-0.951c-40.521 37.888-66.194 63.342-76.946 76.361-19.602 24.869-24.064 49.957-13.312 75.41 7.607 19.31 36.133 59.977 85.577 122.002 25.893 32.914 46.519 59.246 61.733 79.141 109.568 142.775 157.038 234.057 142.482 273.701l-5.632 9.289c-3.803 5.632-13.678 10.752-29.477 15.36-15.872 4.681-36.133 5.413-60.782 2.341l-273.701-1.829c-2.573 0.653-5.527 1.028-8.568 1.028-3.727 0-7.322-0.563-10.705-1.609l0.257 0.068-12.434-2.779-4.681-2.341-3.803-2.779c-4.079-2.703-7.539-5.954-10.384-9.698l-0.075-0.103c-3.786-4.667-6.984-10.027-9.355-15.813l-0.154-0.424c-32.378-81.825-66.509-150.784-105.495-216.524l3.826 6.97c-23.406-38.473-44.91-71.826-64.585-100.059-19.602-28.233-36.059-49.006-49.371-62.391-11.082-11.339-22.873-21.854-35.351-31.527l-0.782-0.583c-10.752-8.046-19.017-11.483-24.649-10.24-10.19 2.119-15.628 3.409-21.042 4.762l4.878-1.031c-8.977 5.729-16.223 13.42-21.268 22.502l-0.162 0.319c-5.609 10.518-9.478 22.808-10.861 35.84l-0.038 0.439c-1.561 10.758-2.74 23.786-3.267 36.982l-0.024 0.76c-0.293 10.533-0.219 25.454 0.439 44.69 0.731 19.237 0.951 32.256 0.951 39.131 0 23.552 0.512 49.152 1.463 76.8s1.682 49.518 2.341 65.609c0.658 16.091 0.951 33.207 0.951 51.2s-1.097 32.183-3.365 42.423c-2.476 11.316-5.901 21.258-10.317 30.642l0.369-0.873c-4.235 9.342-10.922 16.946-19.247 22.186l-0.209 0.123c-9.141 5.501-19.736 9.859-30.992 12.505l-0.752 0.149c-33.573 7.461-76.288 11.483-128.293 12.142-117.76 1.243-193.463-6.217-227.035-22.382-13.312-6.802-25.381-16.091-36.133-27.941-11.41-13.605-12.946-21.065-4.754-22.309 38.034-5.559 64.951-18.944 80.75-40.009l5.705-11.191c4.462-8.046 8.923-22.382 13.312-42.862s7.314-43.154 8.558-67.95c3.145-45.349 3.145-84.114 0-116.37s-6.144-57.417-8.997-75.41c-2.926-17.993-7.168-32.622-12.873-43.739-3.852-8.047-7.651-14.757-11.843-21.187l0.432 0.707c-1.242-1.878-2.803-3.439-4.621-4.644l-0.060-0.037c-7.605-2.964-16.408-4.681-25.613-4.681-0.021 0-0.042 0-0.063 0h0.003c-8.923 0-19.675 4.389-32.329 13.019-14.825 10.655-27.754 22.446-39.193 35.57l-0.231 0.27c-16.208 18.86-31.411 39.72-44.886 61.753l-1.194 2.101c-16.448 26.023-34.146 57.712-50.283 90.31l-2.891 6.458-15.214 27.063c-7.431 12.559-20.449 37.387-33.022 62.477l-6.036 13.299c-11.945 22.809-26.601 54.528-40.119 86.841l-3.548 9.561c-4.498 12.317-12.426 22.486-22.623 29.638l-0.197 0.131-4.681 2.779c-4.362 3.097-9.361 5.761-14.689 7.751l-0.452 0.148c-6.261 2.604-13.587 4.716-21.198 5.988l-0.599 0.083-260.535-1.755c-26.551 0-44.617-5.851-54.126-17.701l-3.657-5.705c-1.884-3.785-2.986-8.244-2.986-12.961 0-0.664 0.022-1.323 0.065-1.976l-0.005 0.089c0-6.875 1.902-15.214 5.705-25.161 45.368-104.673 86.846-187.831 131.903-268.722l-7.926 15.501c44.617-81.335 83.456-146.871 116.37-196.462 32.914-49.737 66.56-96.549 100.718-140.581 34.231-44.105 56.832-72.338 67.95-84.773 11.045-12.434 19.749-21.723 26.112-27.941l23.771-22.309c15.214-14.921 37.522-32.768 66.999-53.541 29.403-20.773 62.025-41.253 97.792-61.44 35.84-20.187 77.531-36.571 125.001-49.371 35.135-10.085 75.491-15.884 117.2-15.884 7.555 0 15.065 0.19 22.527 0.566l-1.048-0.042h109.275c22.162 1.902 38.912 8.704 50.322 20.48l3.803 4.681c3.046 4.947 5.483 10.676 7.006 16.768l0.089 0.421c2.194 7.753 3.365 16.311 3.365 25.6-0.658 26.697 1.463 50.761 6.144 72.192 4.754 21.358 10.167 37.522 16.165 48.347 9.085 16.557 21.4 30.274 36.195 40.708l0.376 0.252c2.072 1.099 4.581 2.209 7.171 3.153l0.436 0.139c15.214 4.974 33.134 0.146 53.687-14.409 20.626-14.629 39.936-32.622 58.002-54.053s39.717-45.422 65.097-72.119c25.307-26.697 47.47-46.519 66.487-59.611l19.017-11.191c12.654-7.461 29.111-14.263 49.371-20.48s38.034-7.753 53.175-4.608l243.2 3.657c24.137 0 42.789 3.95 56.101 11.703s21.211 16.311 23.771 25.6c1.285 5.042 2.022 10.83 2.022 16.791 0 5.271-0.577 10.408-1.67 15.35l0.087-0.47c-1.449 9.265-3.768 17.559-6.931 25.423l0.275-0.774z" />
<glyph unicode="&#xe905;" glyph-name="instagram" data-tags="instagram-logo" d="M921.6 960h-819.2c-56.32 0-102.4-46.080-102.4-102.4v-819.2c0-56.32 46.080-102.4 102.4-102.4h819.2c56.32 0 102.4 46.080 102.4 102.4v819.2c0 56.32-46.080 102.4-102.4 102.4zM512 652.8c112.64 0 204.8-92.16 204.8-204.8s-92.16-204.8-204.8-204.8c-112.978 0.323-204.477 91.822-204.8 204.769v0.031c0 112.64 92.16 204.8 204.8 204.8zM128 38.4c-15.36 0-25.6 10.24-25.6 25.6v435.2h107.52c-5.12-15.36-5.12-35.84-5.12-51.2 0-168.96 138.24-307.2 307.2-307.2s307.2 138.24 307.2 307.2c0 15.36 0 35.84-5.12 51.2h107.52v-435.2c0-15.36-10.24-25.6-25.6-25.6h-768zM921.6 729.6c0-15.36-10.24-25.6-25.6-25.6h-102.4c-15.36 0-25.6 10.24-25.6 25.6v102.4c0 15.36 10.24 25.6 25.6 25.6h102.4c15.36 0 25.6-10.24 25.6-25.6v-102.4z" />
<glyph unicode="&#xe906;" glyph-name="plash-pink" data-tags="rectangle-3_4" horiz-adv-x="1015" d="M2.138 369.377l579 583.779 431.508-0.395-1010.131-1009.664z" />
<glyph unicode="&#xe907;" glyph-name="left-arrow" data-tags="right-arrow-circular-button-1_2" d="M520.704-46.592c277.504 0 503.296 225.724 503.296 503.262s-225.792 503.33-503.296 503.33c-277.538 0-503.33-225.792-503.33-503.296 0-277.538 225.792-503.33 503.33-503.33zM520.704 925.867c258.662 0 469.163-210.466 469.163-469.163s-210.5-469.197-469.163-469.197c-258.731 0-469.197 210.5-469.197 469.197 0.034 258.697 210.466 469.163 469.197 469.163zM583.885 279.962c9.424 0.002 17.063 7.642 17.063 17.067 0 4.72-1.916 8.993-5.014 12.083v0l-154.624 154.829 154.624 154.829c2.635 2.993 4.243 6.946 4.243 11.274 0 9.445-7.656 17.101-17.101 17.101-4.328 0-8.281-1.608-11.293-4.259l0.019 0.016-166.673-166.878c-3.087-3.088-4.997-7.354-4.997-12.066s1.91-8.978 4.997-12.066l166.673-166.878c3.345-3.379 7.714-5.052 12.083-5.052z" />
<glyph unicode="&#xe908;" glyph-name="right-arrow" data-tags="right-arrow-circular-button-1" d="M503.296-46.592c-277.504 0-503.296 225.724-503.296 503.262s225.792 503.33 503.296 503.33c277.538 0 503.33-225.792 503.33-503.296 0-277.538-225.792-503.33-503.33-503.33zM503.296 925.867c-258.662 0-469.163-210.466-469.163-469.163s210.5-469.197 469.163-469.197c258.731 0 469.197 210.5 469.197 469.197-0.034 258.697-210.466 469.163-469.197 469.163zM440.115 279.962c-9.424 0.002-17.063 7.642-17.063 17.067 0 4.72 1.916 8.993 5.014 12.083v0l154.624 154.829-154.624 154.829c-2.635 2.993-4.243 6.946-4.243 11.274 0 9.445 7.656 17.101 17.101 17.101 4.328 0 8.281-1.608 11.293-4.259l-0.019 0.016 166.673-166.878c3.087-3.088 4.997-7.354 4.997-12.066s-1.91-8.978-4.997-12.066l-166.673-166.878c-3.067-3.119-7.333-5.052-12.049-5.052-0.012 0-0.024 0-0.036 0h0.002z" />
<glyph unicode="&#xe909;" glyph-name="plash-new" data-tags="rectangle-3" horiz-adv-x="1015" d="M2.138 369.377l579 583.779 431.508-0.395-1010.131-1009.664z" />
<glyph unicode="&#xe90a;" glyph-name="like-black" data-tags="like-black-heart-button" horiz-adv-x="1195" d="M537.884 453.575c-16.356 35.088-25.899 76.175-25.899 119.491 0 1.031 0.005 2.062 0.016 3.090l-0.001-0.157c0 45.397 9.216 91.022 25.884 133.803 17.767 45.052 41.58 83.851 70.961 117.684l-0.419-0.493c28.956 33.69 63.647 61.499 102.711 82.139l1.907 0.919c37.173 19.781 81.248 31.497 128.036 31.744h0.077c0.139 0 0.303 0 0.467 0 135.401 0 251.667-81.925 301.934-198.909l0.817-2.136c16.725-39.367 25.884-82.716 25.884-128.114 0-0.171 0.001-0.374 0.001-0.577 0-90.711-36.859-172.813-96.417-232.146l-0.010-0.010c-29.696-29.81-449.308-408.86-488.676-425.529-39.424 16.668-458.98 395.719-488.732 425.529-59.572 59.438-96.427 141.623-96.427 232.415 0 0.091 0 0.183 0 0.274v-0.014c0 0.094 0 0.206 0 0.317 0 90.792 36.855 172.977 96.42 232.409l0.006 0.006c59.421 59.571 141.59 96.427 232.368 96.427 0.128 0 0.256 0 0.384 0h-0.020c45.454 0 88.747-11.492 128.114-31.573 40.956-21.591 75.642-49.396 104.232-82.598l0.387-0.46c28.939-33.367 52.749-72.181 69.587-114.525l0.955-2.723c16.612-42.837 25.828-88.462 25.828-133.86s-9.216-86.471-25.828-122.425c-17.203-36.447-41.011-67.137-70.143-91.718l-0.4-0.329z" />
<glyph unicode="&#xe90b;" glyph-name="basket" data-tags="empty-shopping-basket" horiz-adv-x="1178" d="M862.771 497.101c0.067 0 0.147 0 0.227 0 30.624 0 55.45 24.826 55.45 55.45 0 9.929-2.61 19.248-7.18 27.309l0.144-0.275-201.933 350.874c-9.633 17.221-27.757 28.672-48.555 28.672-0.066 0-0.131 0-0.197 0h0.010c-0.061 0-0.133 0-0.205 0-30.596 0-55.398-24.803-55.398-55.398 0-0.018 0-0.036 0-0.054v0.003c0-9.216 2.253-18.534 6.963-27.085l202.035-350.925c10.138-18.278 29.133-28.672 48.64-28.672zM258.714 504.115c7.775-4.387 17.071-6.971 26.97-6.971 20.815 0 38.962 11.427 48.508 28.351l0.144 0.278 201.933 350.925c4.762 8.55 7.014 17.92 7.014 27.085-0.174 30.605-25.024 55.347-55.654 55.347 0 0-0.001 0-0.001 0v0c-19.661 0-38.656-10.24-48.742-28.672l-201.984-350.771c-4.338-7.74-6.892-16.985-6.892-26.827 0-20.845 11.46-39.014 28.424-48.549l0.28-0.144zM1092.915 575.59h-126.259c1.617-6.966 2.544-14.965 2.544-23.18 0-39.885-21.853-74.666-54.238-93.024l-0.53-0.277c-14.864-8.329-32.62-13.234-51.521-13.234-40.074 0-74.998 22.050-93.302 54.679l-0.278 0.539c0.358-0.922-43.008 74.496-43.008 74.496h-304.23l-43.008-74.803c-18.696-32.979-53.56-54.87-93.537-54.87-18.893 0-36.645 4.889-52.058 13.472l0.546-0.279c-24.631 13.733-42.963 36.265-50.907 63.246l-0.19 0.754c-2.476 8.559-3.9 18.391-3.9 28.555 0 8.484 0.992 16.737 2.867 24.648l-0.144-0.723h-125.952c-29.804-1.317-53.468-25.799-53.468-55.808s23.664-54.491 53.35-55.804l0.118-0.004h17.92c0.358-2.56 0.563-5.018 1.331-7.68l110.285-414.618c9.318-34.918 46.49-63.488 82.637-63.488h19.251v-20.48c0-11.264 11.776-20.378 26.214-20.378h147.661c14.49 0 26.214 9.114 26.214 20.429v20.378h190.31v-20.378c0-11.264 11.776-20.429 26.214-20.429h147.661c14.49 0 26.214 9.114 26.214 20.429v20.378h3.072c36.147 0 73.37 28.621 82.688 63.539l110.285 414.618c0.666 2.611 0.973 5.12 1.229 7.68h17.92c30.822 0 55.808 24.986 55.808 55.808s-24.986 55.808-55.808 55.808v0zM340.582 91.904c-0.703-16.947-14.612-30.419-31.667-30.419s-30.964 13.472-31.665 30.356l-0.002 0.063v240.64c0 17.489 14.178 31.667 31.667 31.667s31.667-14.178 31.667-31.667v-240.64zM517.632 91.904c-0.981-16.739-14.795-29.942-31.693-29.942s-30.712 13.203-31.689 29.856l-0.004 0.086v240.64c0 17.503 14.189 31.693 31.693 31.693s31.693-14.189 31.693-31.693v0-240.64zM694.63 91.904c0-17.503-14.189-31.693-31.693-31.693s-31.693 14.189-31.693 31.693v0 240.64c0 17.503 14.189 31.693 31.693 31.693s31.693-14.189 31.693-31.693v0-240.64zM871.629 91.904c-0.981-16.739-14.795-29.942-31.693-29.942s-30.712 13.203-31.689 29.856l-0.004 0.086v240.64c0 17.503 14.189 31.693 31.693 31.693s31.693-14.189 31.693-31.693v0-240.64z" />
<glyph unicode="&#xe90c;" glyph-name="up-arrow" data-tags="down-arrow-of-angle" horiz-adv-x="1609" d="M1582.811 166.107l-224.402-224.549-567.003 567.003-566.857-567.003-224.549 224.549 791.406 791.406z" />
<glyph unicode="&#xe90d;" glyph-name="twitter" data-tags="twitter-logo-silhouette" horiz-adv-x="1308" d="M1258.382 838.144c-43.151-19.676-93.209-33.997-145.705-40.427l-2.49-0.249c53.327 32.359 93.423 81.971 112.912 140.96l0.524 1.832c-50.005-29.582-105.188-51.086-164.011-62.692-47.234 50.4-114.217 81.802-188.533 81.802-142.579 0-258.162-115.583-258.162-258.162 0-20.925 2.49-41.269 7.189-60.751l-0.359 1.762c-215.056 11.042-404.239 113.188-531.103 268.291l-1.036 1.306c-21.92-36.97-34.874-81.492-34.874-129.039 0-0.235 0-0.469 0.001-0.704v0.036c0-89.543 45.568-168.619 114.802-214.812-43.156 1.474-83.243 13.316-118.251 33.096l1.288-0.669v-3.3c0.044-124.506 88.141-228.423 205.398-252.863l1.677-0.292c-21.618-5.746-44.43-8.988-68.039-8.988-16.668 0-32.768 1.65-48.583 4.779 33.937-103.37 128.627-177.096 240.843-179.253l0.253-0.004c-87.104-68.804-198.495-110.365-319.593-110.365-0.363 0-0.726 0-1.090 0.001h0.057c-20.821 0-41.358 1.252-61.554 3.584 111.618-72.841 248.261-116.167 395.023-116.167 0.244 0 0.489 0 0.733 0h-0.037c474.852 0 734.436 393.33 734.436 734.436l-0.853 33.451c50.97 36.707 93.843 80.92 127.974 131.517l1.164 1.831z" />
<glyph unicode="&#xe90e;" glyph-name="google" data-tags="google-plus-1" horiz-adv-x="1593" d="M1536 550.969h-98.873v98.759c0 0.017 0 0.037 0 0.057 0 20.674-16.759 37.433-37.433 37.433h-133.461c-0.017 0-0.037 0-0.057 0-20.674 0-37.433-16.759-37.433-37.433 0-0.020 0-0.040 0-0.060v0.003-98.759h-98.816c-0.017 0-0.037 0-0.057 0-20.674 0-37.433-16.759-37.433-37.433v0-133.461c0-20.708 16.782-37.433 37.49-37.433h98.816v-98.873c0-20.708 16.782-37.49 37.49-37.49h133.461c0 0 0 0 0 0 20.674 0 37.433 16.759 37.433 37.433 0 0.020 0 0.040 0 0.060v-0.003 98.873h98.873c0.017 0 0.037 0 0.057 0 20.674 0 37.433 16.759 37.433 37.433v0 133.404c0 0 0 0 0 0 0 20.674-16.759 37.433-37.433 37.433-0.020 0-0.040 0-0.060 0h0.003zM509.042 714.468c0.348 0.002 0.76 0.003 1.172 0.003 46.29 0 89.499-13.195 126.069-36.029l-1.004 0.585 42.553-29.070c14.791-10.126 34.702-8.363 47.502 4.267l124.018 122.88c6.866 6.789 11.117 16.209 11.117 26.622 0 12.776-6.4 24.057-16.169 30.811l-0.125 0.082-72.078 49.436c-1.309 0.904-2.818 1.793-4.39 2.576l-0.218 0.098-69.86 34.475c-56.552 23.465-122.232 37.092-191.095 37.092-0.018 0-0.036 0-0.055 0h0.003c-133.689 0-259.755-51.257-354.987-144.384-96.711-94.663-150.528-223.289-151.495-362.212-0.91-138.98 51.2-268.345 146.66-364.203 94.72-95.175 229.148-149.788 368.754-149.788 138.126 0 267.776 53.589 355.556 147.172 69.632 74.069 112.356 172.999 123.563 286.151 0.097 0.94 0.159 2.047 0.171 3.166v0.020l1.308 101.66c0.002 0.142 0.003 0.309 0.003 0.477 0 2.041-0.167 4.043-0.487 5.993l0.029-0.213-5.461 34.702c-2.904 18.039-18.346 31.656-36.975 31.687h-432.927c-0.017 0-0.037 0-0.057 0-20.674 0-37.433-16.759-37.433-37.433v0-149.788c0-20.708 16.782-37.433 37.49-37.433h220.729c-10.126-22.187-26.112-45.568-46.251-67.356-43.975-47.559-109.511-74.809-179.883-74.809-71.851 0-140.629 28.16-188.757 77.198-100.124 102.172-98.987 280.121 2.446 380.871 46.376 45.889 110.091 74.333 180.45 74.638h0.059z" />
<glyph unicode="&#xe90f;" glyph-name="close" data-tags="close-1" d="M1009.869 947.917c-7.468 7.47-17.787 12.091-29.184 12.091s-21.716-4.62-29.184-12.091l-939.418-939.418c-7.469-7.469-12.088-17.787-12.088-29.184 0-22.794 18.478-41.272 41.272-41.272 11.397 0 21.715 4.62 29.184 12.088l939.418 939.418c7.47 7.468 12.091 17.787 12.091 29.184s-4.62 21.716-12.091 29.184v0zM1009.869 8.499l-939.418 939.418c-7.469 7.469-17.787 12.088-29.184 12.088-22.794 0-41.272-18.478-41.272-41.272 0-11.397 4.62-21.715 12.088-29.184l939.418-939.418c7.457-7.495 17.779-12.133 29.184-12.133s21.727 4.638 29.182 12.131l0.002 0.002c7.47 7.468 12.091 17.787 12.091 29.184s-4.62 21.716-12.091 29.184v0z" />
<glyph unicode="&#xe910;" glyph-name="phone-call" data-tags="phone-call" d="M808.96 325.939c-20.966 21.811-46.234 33.485-73.037 33.485-26.573 0-52.045-11.469-73.882-33.28l-68.25-68.045c-5.632 3.021-11.264 5.837-16.64 8.627-7.782 3.891-15.104 7.578-21.402 11.469-63.949 40.602-122.061 93.542-177.792 162.022-27.008 34.125-45.133 62.848-58.317 92.032 17.715 16.205 34.125 33.024 50.125 49.254 6.042 6.042 12.083 12.288 18.125 18.355 45.389 45.363 45.389 104.115 0 149.504l-58.931 58.957c-6.73 6.661-13.281 13.351-19.728 20.14l-0.368 0.391c-13.234 13.832-26.476 26.936-40.068 39.673l-0.56 0.519c-20.941 20.736-46.003 31.744-72.371 31.744s-51.84-11.008-73.446-31.744l-0.435-0.435-73.446-74.112c-26.36-25.879-43.681-60.885-46.837-99.894l-0.037-0.561c-5.197-63.078 13.389-121.856 27.648-160.282 34.995-94.413 87.296-181.914 165.274-275.661 94.618-112.998 208.461-202.214 338.509-265.088 49.69-23.552 116.019-51.405 190.106-56.166 4.557-0.205 9.293-0.435 13.619-0.435 49.92 0 91.827 17.92 124.672 53.581 0.205 0.435 0.64 0.666 0.845 1.075 11.238 13.619 24.192 25.933 37.811 39.117 9.734 9.227 18.887 18.307 27.83 27.589l0.253 0.264c21.376 22.272 32.614 48.179 32.614 74.752 0 26.803-11.443 52.48-33.28 74.112l-118.579 119.040zM886.272 98.432c-0.205 0-0.205-0.205 0 0-8.397-9.062-17.050-17.28-26.342-26.368-14.628-13.66-28.237-27.748-41.096-42.506l-0.581-0.681c-21.837-23.322-47.539-34.355-81.229-34.355-3.251 0-6.707 0-9.958 0.23-64.154 4.096-123.776 29.184-168.499 50.56-122.266 59.187-229.632 143.206-318.874 249.728-73.651 88.781-122.906 170.88-155.546 259.021-20.070 53.786-27.418 95.693-24.192 135.245 1.837 25.294 12.9 47.699 29.801 64.131l0.023 0.022 73.651 73.677c10.598 9.933 21.837 15.334 32.845 15.334 13.619 0 24.627-8.192 31.539-15.104l0.666-0.666c13.158-12.314 25.702-25.088 38.886-38.656 6.682-6.912 13.594-13.824 20.506-20.992l59.008-58.957c22.912-22.912 22.912-44.083 0-66.97-6.272-6.272-12.314-12.544-18.586-18.586-18.15-18.586-35.43-35.84-54.221-52.71-0.435-0.435-0.87-0.64-1.075-1.075-18.586-18.586-15.104-36.736-11.238-49.050l0.64-1.946c15.36-37.146 36.941-72.141 69.786-113.843l0.23-0.205c59.622-73.472 122.47-130.714 191.821-174.566 8.858-5.632 17.92-10.163 26.573-14.464 7.782-3.891 15.13-7.578 21.402-11.469 0.845-0.435 1.715-1.075 2.586-1.51 7.347-3.661 14.259-5.376 21.376-5.376 17.92 0 29.184 11.213 32.845 14.899l73.882 73.882c7.347 7.347 19.021 16.205 32.614 16.205 13.414 0 24.422-8.448 31.13-15.77l119.475-119.475c22.246-22.016 22.246-44.723 0.205-67.635zM553.165 716.518c58.808-10.161 109.901-37.81 149.048-77.317l0.021-0.021c39.45-39.218 67.079-90.287 77.098-147.417l0.24-1.652c2.381-14.259 14.694-24.192 28.723-24.192 1.741 0 3.251 0.205 4.966 0.435 13.93 2.378 24.402 14.361 24.402 28.789 0 1.731-0.151 3.427-0.44 5.075l0.025-0.175c-12.397 71.134-45.817 132.939-93.527 180.388l-0.015 0.015c-47.458 47.721-109.253 81.14-178.379 93.252l-1.998 0.29c-1.459 0.258-3.14 0.405-4.855 0.405-14.377 0-26.337-10.351-28.833-24.008l-0.027-0.18c-2.816-15.77 7.578-31.104 23.552-33.69zM1022.387 508.467c-19.2 112.768-72.371 215.398-154.035 297.062s-184.269 134.81-297.037 154.035c-1.455 0.258-3.13 0.406-4.839 0.406-14.328 0-26.233-10.37-28.62-24.014l-0.025-0.174c-0.251-1.442-0.395-3.102-0.395-4.795 0-14.447 10.452-26.453 24.206-28.869l0.176-0.026c100.659-17.075 192.486-64.819 265.498-137.626 73.011-73.011 120.55-164.813 137.6-265.472 2.381-14.285 14.694-24.218 28.749-24.218 1.715 0 3.226 0.205 4.966 0.435 13.79 2.217 24.197 14.032 24.197 28.277 0 1.768-0.16 3.499-0.467 5.178l0.027-0.175z" />
<glyph unicode="&#xe911;" glyph-name="envelope" data-tags="envelope" horiz-adv-x="1357" d="M1177.472 957.926h-1013.453c-90.556-0.073-163.946-73.463-164.019-164.012v-692.666c0.087-90.545 73.472-163.921 164.012-163.994h1013.178c90.536 0.087 163.906 73.458 163.994 163.985v692.386c0.282 90.47-73.267 164.326-163.712 164.326zM1266.56 101.248c-0.058-49.178-39.909-89.030-89.082-89.088h-1013.458c-49.178 0.058-89.030 39.909-89.088 89.082v692.384c0.058 49.178 39.909 89.030 89.082 89.088h1013.177c49.178-0.058 89.030-39.909 89.088-89.082v-692.384h0.256zM845.824 456.192l328.064 294.144c7.607 6.912 12.363 16.844 12.363 27.886 0 9.663-3.642 18.476-9.629 25.14l0.031-0.035c-6.913 7.624-16.856 12.392-27.912 12.392-9.651 0-18.454-3.633-25.115-9.607l0.035 0.031-452.352-406.016-88.243 78.822c-0.256 0.256-0.563 0.538-0.563 0.819-1.858 1.86-3.846 3.589-5.95 5.171l-0.142 0.103-359.117 321.357c-6.593 5.924-15.358 9.546-24.969 9.546-11.135 0-21.134-4.862-27.99-12.58l-0.033-0.038c-5.93-6.595-9.557-15.365-9.557-24.981 0-11.128 4.857-21.122 12.566-27.977l0.038-0.033 331.853-296.653-330.47-309.402c-7.261-6.875-11.78-16.583-11.78-27.346 0-9.933 3.848-18.967 10.135-25.693l-0.020 0.021c6.875-7.361 16.637-11.949 27.472-11.949 9.865 0 18.842 3.804 25.544 10.025l-0.024-0.022 335.514 313.856 91.008-81.306c6.576-5.843 15.285-9.412 24.828-9.412 9.692 0 18.524 3.681 25.174 9.722l-0.031-0.028 93.517 83.814 333.568-316.928c7.194-6.912 16.64-10.24 25.805-10.24 0.032 0 0.071 0 0.109 0 20.67 0 37.427 16.757 37.427 37.427 0 10.713-4.501 20.374-11.714 27.196l-0.018 0.016-329.421 312.755z" />
<glyph unicode="&#xe912;" glyph-name="download" data-tags="download" horiz-adv-x="1138" d="M1072.526 460.516c-0.034 0-0.074 0-0.114 0-17.406 0-31.516-14.11-31.516-31.516 0-0.040 0-0.080 0-0.12v0.006-287.744c-0.097-78.257-63.51-141.67-141.758-141.767h-694.054c-78.281 0.065-141.727 63.49-141.824 141.758v292.418c0 0.051 0 0.111 0 0.171 0 17.406-14.11 31.516-31.516 31.516-0.040 0-0.080 0-0.12 0h0.006c-0.034 0-0.074 0-0.114 0-17.406 0-31.516-14.11-31.516-31.516 0-0.040 0-0.080 0-0.12v0.006-292.409c0.097-113.206 91.826-204.955 205.015-205.084h694.057c113.206 0.097 204.955 91.826 205.084 205.015v287.756c0 17.469-14.161 31.63-31.63 31.63v0zM529.806 187.335c5.692-5.721 13.542-9.291 22.225-9.387h0.018c7.964 0 16.213 3.015 22.3 9.387l201.045 201.045c5.746 5.71 9.303 13.619 9.303 22.357s-3.557 16.647-9.301 22.356l-0.002 0.002c-5.713 5.763-13.633 9.332-22.386 9.332s-16.673-3.568-22.384-9.329l-0.002-0.002-146.944-147.115v641.82c0 0.034 0 0.074 0 0.114 0 17.406-14.11 31.516-31.516 31.516-0.040 0-0.080 0-0.12 0h0.006c-0.034 0-0.074 0-0.114 0-17.406 0-31.516-14.11-31.516-31.516 0-0.040 0-0.080 0-0.12v0.006-641.82l-147.115 147.115c-5.713 5.763-13.633 9.332-22.386 9.332s-16.673-3.568-22.384-9.329l-0.002-0.002c-5.746-5.71-9.303-13.619-9.303-22.357s3.557-16.647 9.301-22.356l0.002-0.002 201.273-201.045z" />
<glyph unicode="&#xe913;" glyph-name="catalog-of-rectangular-pieces-outlines" data-tags="catalog-of-rectangular-pieces-outlines" horiz-adv-x="1058" d="M982.357 446.635c-3.836 9.906-13.287 16.803-24.349 16.803-3.205 0-6.275-0.579-9.111-1.638l0.18 0.059-243.029-87.586 196.471 193.126c4.689 4.59 7.596 10.984 7.596 18.057s-2.907 13.467-7.592 18.052l-0.004 0.004-151.962 149.572c-4.728 4.624-11.204 7.477-18.347 7.477s-13.619-2.853-18.352-7.481l0.005 0.005-192.649-189.44 108.066 252.211c1.295 2.938 2.049 6.364 2.049 9.966 0 10.569-6.491 19.622-15.705 23.389l-0.169 0.061-198.076 82.159c-2.977 1.284-6.443 2.031-10.083 2.031-10.625 0-19.763-6.362-23.814-15.484l-0.066-0.166-106.735-249.037v265.182c-0.135 14.111-11.605 25.498-25.735 25.498-0.072 0-0.145 0-0.217-0.001h-224.791c-14.336 0-25.941-11.401-25.941-25.498v-969.83c0-14.063 11.605-25.498 25.941-25.498h224.802c3.174 0 6.178 0.649 8.977 1.638 2.799-0.99 5.734-1.638 8.772-1.638 0.025 0 0.055 0 0.085 0 3.165 0 6.198 0.563 9.005 1.594l-0.181-0.058 763.46 275.183c9.985 3.571 17.002 12.95 17.002 23.968 0 3.16-0.577 6.184-1.631 8.975l0.058-0.175-73.933 198.519zM153.327-10.342h-101.444v918.767h172.919v-918.767h-71.441zM571.392 812.169l-294.707-687.821v413.013l144.452 337.101 150.255-62.293zM363.93 196.608l103.868 242.381 264.397 259.959 115.302-113.493-547.635-538.453 64.068 149.606zM344.439 18.671l274.33 269.756 323.823 116.736 56.081-150.665-654.234-235.827zM138.342 94.583c-1.126 0-2.219-0.239-3.311-0.341-15.974-1.415-28.971-12.682-32.948-27.626l-0.059-0.261c-0.695-2.579-1.116-5.548-1.16-8.609v-0.027c0-8.124 2.731-15.531 7.236-21.606 6.827-9.216 17.749-15.258 30.242-15.258 1.809 0 3.55 0.273 5.291 0.546 11.111 1.553 20.51 7.806 26.263 16.649l0.088 0.144c3.072 4.779 4.949 10.308 5.461 16.282 0.102 1.092 0.341 2.15 0.341 3.243-0.135 20.389-16.694 36.866-37.102 36.866-0.12 0-0.24-0.001-0.36-0.002h0.018z" />
<glyph unicode="&#xe914;" glyph-name="menu" data-tags="menu-4" horiz-adv-x="1556" d="M58.532 828.355h1433.6c31.174 1.473 55.891 27.106 55.891 58.511s-24.717 57.038-55.759 58.506l-0.132 0.005h-1433.6c-31.174-1.473-55.891-27.106-55.891-58.511s24.717-57.038 55.759-58.506l0.132-0.005zM58.532 389.468h1433.6c31.393 1.211 56.383 26.953 56.383 58.532s-24.99 57.321-56.273 58.528l-0.11 0.003h-1433.6c-31.393-1.211-56.383-26.953-56.383-58.532s24.99-57.321 56.273-58.528l0.11-0.003zM58.532-49.377h1433.6c31.174 1.473 55.891 27.106 55.891 58.511s-24.717 57.038-55.759 58.506l-0.132 0.005h-1433.6c-31.174-1.473-55.891-27.106-55.891-58.511s24.717-57.038 55.759-58.506l0.132-0.005z" />
</font>
</defs>
</svg>
